<?xml version="1.0" encoding="UTF-8" standalone="no"?>
<!-- Created with Inkscape (http://www.inkscape.org/) -->

<svg
   width="1920mm"
   height="1080mm"
   viewBox="0 0 1920 1080"
   version="1.1"
   id="svg5"
   inkscape:version="1.2.2 (732a01da63, 2022-12-09)"
   sodipodi:docname="name.svg"
   xmlns:inkscape="http://www.inkscape.org/namespaces/inkscape"
   xmlns:sodipodi="http://sodipodi.sourceforge.net/DTD/sodipodi-0.dtd"
   xmlns="http://www.w3.org/2000/svg"
   xmlns:svg="http://www.w3.org/2000/svg">
  <sodipodi:namedview
     id="namedview7"
     pagecolor="#ffffff"
     bordercolor="#000000"
     borderopacity="0.25"
     inkscape:showpageshadow="2"
     inkscape:pageopacity="0.0"
     inkscape:pagecheckerboard="0"
     inkscape:deskcolor="#d1d1d1"
     inkscape:document-units="mm"
     showgrid="false"
     inkscape:zoom="0.2102413"
     inkscape:cx="3312.86"
     inkscape:cy="2028.6214"
     inkscape:window-width="1920"
     inkscape:window-height="1112"
     inkscape:window-x="-8"
     inkscape:window-y="-8"
     inkscape:window-maximized="1"
     inkscape:current-layer="layer1" />
  <defs
     id="defs2">
    <inkscape:path-effect
       effect="attach_path"
       id="path-effect5287"
       lpeversion="1" />
    <rect
       x="385.27159"
       y="599.31136"
       width="3771.8564"
       height="3067.9034"
       id="rect270" />
  </defs>
  <g
     inkscape:label="Layer 1"
     inkscape:groupmode="layer"
     id="layer1">
    <text
       xml:space="preserve"
       style="font-size:352.778px;line-height:10;white-space:pre;inline-size:1858.92;display:inline;fill:#000000;stroke-width:0.264583"
       x="250.43643"
       y="470.66949"
       id="text113"
       transform="translate(-166.11865,128.36441)"><tspan
         x="250.43643"
         y="470.66949"
         id="tspan16218"><tspan
           style="font-family:'Clicker Script';-inkscape-font-specification:'Clicker Script'"
           id="tspan16216">ahtsham sohail </tspan></tspan></text>
    <text
       xml:space="preserve"
       transform="scale(0.26458333)"
       id="text268"
       style="font-style:normal;font-variant:normal;font-weight:normal;font-stretch:normal;font-size:1333.33px;font-family:'Clicker Script';-inkscape-font-specification:'Clicker Script';white-space:pre;shape-inside:url(#rect270);display:inline;fill:#000000;stroke-width:1.00157481;stroke-dasharray:none" />
    <path
       style="font-variation-settings:normal;opacity:1;fill:#f3ebb6;fill-opacity:0;stroke:#ffe500;stroke-width:5.765;stroke-linecap:butt;stroke-linejoin:miter;stroke-miterlimit:4;stroke-dasharray:none;stroke-dashoffset:0;stroke-opacity:1;stop-color:#000000;stop-opacity:1"
       d="m 147.84045,528.18877 c 18.46493,-16.24023 16.66055,-8.78777 24.83364,-25.66298 7.71142,-15.92196 -10.49421,-27.99948 -10.49421,-27.99948 0,0 -4.89431,-0.88987 -15.35036,-0.22246 -10.45604,0.66741 -38.72541,37.03782 -38.72541,37.03782 0,0 -6.25443,29.83724 -6.28311,40.74726 -0.0316,12.02914 13.6404,30.77979 22.98409,32.11461 9.3437,1.33479 26.47381,0.22246 30.47826,-7.11901 4.00443,-7.34148 14.01554,-22.02445 18.01998,-36.92986 4.00444,-14.90543 7.11901,-22.69183 2.44716,-17.1301 -4.67185,5.56173 -8.23135,40.48935 -1.33481,47.83082 6.89653,7.34147 14.90542,14.68294 21.13455,8.89876 6.22913,-5.78419 21.35702,-25.8064 26.02887,-38.26465 4.67185,-12.45828 23.13677,-32.48049 24.47159,-36.7074 1.33481,-4.2269 18.24245,-41.37921 18.24245,-41.37921 l 11.79086,-31.14567 4.00444,-31.81308 c 0,0 2.2247,-12.68071 -6.89655,-13.79307 -9.12122,-1.11233 -20.91207,-0.44492 -29.58836,20.91209 -8.67629,21.35703 -9.56617,76.52932 -9.56617,76.52932 l -4.67185,75.63945 -1.64943,30.31903 24.56374,-56.57035 c 0,0 13.12568,-25.8064 17.57504,-27.36368 4.44939,-1.55729 17.13011,-15.1279 21.5795,-11.79087 4.44936,3.33703 16.66281,15.48994 16.66281,15.48994 l -9.02252,40.02862 -5.66971,24.59919 c 0,0 10.26521,15.54392 17.60668,14.87651 7.34147,-0.66742 22.91432,-13.57062 22.91432,-13.57062 0,0 10.01109,-12.9032 11.56837,-23.5817 1.55729,-10.6785 26.69628,-49.61059 26.69628,-49.61059 l 15.57284,-40.48935 11.56838,-39.37701 c 0,0 2.89211,-8.00888 -2.2247,-18.24246 -5.11677,-10.23356 -26.69627,30.9232 -26.69627,30.9232 l -8.23134,51.83526 2.22469,43.8264 6.67406,37.59724 16.68518,14.01556 21.80196,-4.89431 c 0,0 18.68739,-23.35924 20.46713,-29.36592 1.77975,-6.00665 18.68739,-54.05996 18.68739,-54.05996 0,0 6.49634,-41.45829 0.0447,-30.33484 -6.4516,11.12346 5.96194,37.45385 5.96194,37.45385 0,0 20.06036,30.03331 25.84457,38.26465 5.78419,8.23138 7.56394,21.67166 3.55949,31.23783 -4.00444,9.56617 -15.95431,25.88928 -24.50974,22.82213 -51.28147,-18.38458 11.12345,-2.66962 20.24467,-3.55949 9.12122,-0.88987 23.13678,-18.24247 31.81307,-30.47826 8.67627,-12.23578 9.34369,-26.25132 16.01775,-31.36812 6.67408,-5.11678 20.46716,-21.13455 24.02665,-28.92097 3.55952,-7.7864 28.47605,-76.52933 28.47605,-76.52933 l 1.77974,-22.69183 c 0,0 -2.00223,-14.9054 -10.01112,-16.01777 -8.00888,-1.11233 -20.91208,8.6763 -23.80416,17.79752 -2.89211,9.12125 -11.34592,57.17453 -11.34592,57.17453 0,0 -2.44716,61.17896 -2.8921,68.74293 -0.44493,7.56393 -8.45381,66.29574 -3.33704,53.615 5.11678,-12.68071 24.47158,-52.94759 28.69851,-57.84194 4.22691,-4.89431 14.238,-22.02441 19.13231,-22.69183 4.89432,-0.66741 11.56841,-12.01332 22.02445,-3.33703 10.45604,8.6763 7.56393,24.91653 4.44936,34.92762 -3.11456,10.01112 -7.78639,28.47605 -8.00888,38.48714 -0.22246,10.01112 4.22693,18.46493 10.45604,18.24247 6.22914,-0.22247 20.68962,0 23.13678,-5.33927 2.44716,-5.33924 10.90099,-22.02442 15.1279,-29.81084 4.2269,-7.7864 14.23802,-26.91874 19.13234,-36.92986 4.89431,-10.01109 19.3548,-34.2602 23.35924,-34.92761 4.00444,-0.66742 21.80196,-12.01333 27.14119,-9.12122 5.33927,2.89208 17.79752,5.78419 17.57506,11.79084 -0.22246,6.00667 0.88987,24.24911 -3.78198,25.80639 -4.67183,1.55729 -14.01554,13.12569 -16.01775,11.79087 -2.00223,-1.33482 48.49823,-53.17008 48.49823,-53.17008 l -95.74838,-4.42703 -3.43463,96.20803 c 0,0 6.63592,14.3367 13.53244,18.34114 6.89655,4.00445 10.45605,7.34148 18.46493,4.67186 8.00888,-2.66965 19.57729,-3.33706 20.46716,-11.56841 0.88987,-8.23134 13.79307,-16.01776 15.35036,-25.58393 1.55728,-9.56615 2.89208,-36.48491 3.78198,-23.35925 0.88987,13.12569 -2.00224,28.25359 -2.00224,28.25359 0,0 -3.78198,18.68739 0.66742,20.46713 4.44936,1.77975 12.68073,10.90097 16.24023,8.23135 3.55949,-2.66962 16.01777,-8.45381 17.1301,-14.90541 1.11236,-6.4516 25.13902,-58.28689 27.14122,-62.95874 2.00224,-4.67183 8.23135,-17.35257 14.90544,-16.68515 6.67406,0.66741 10.90096,5.33924 10.90096,5.33924 l 2.89211,10.01111 0.66741,13.79308 -0.22249,20.68962 -4.44936,28.03107 -2.9461,28.31026 8.73029,-34.09445 5.11677,-17.1301 3.55952,-17.79752 6.00665,-14.68294 7.34148,-14.23803 7.34147,-8.67629 10.67853,-3.78198 6.00665,3.33705 4.2269,6.67406 5.11681,16.24024 -1.33483,15.57281 -3.55949,22.69186 -3.33706,17.79752 c -0.59325,3.70782 5.20744,20.12026 -2.09436,11.75269 l 18.77954,-65.59019 14.01557,-15.35036 7.34147,-1.77974 h 7.78639 l 5.78422,7.11898 3.33703,9.78866 v 16.01774 l -0.44495,17.57506 -2.2247,13.12568 -0.44492,17.35257 2.66962,9.12122 8.6763,4.00444 11.34591,-4.67183 8.00889,-7.11901 8.89875,-15.35036 9.12122,-13.34815 7.34148,-20.02221 3.78198,-7.34147 63.62615,24.4716 2.8921,-3.33705 6.6741,-8.45381 5.7842,-12.01333 7.7864,-16.46269 2.6696,-17.57505 4.4494,-15.57285 -2.4472,-8.67627 -8.6762,4.89432 1.1123,7.78639 5.3393,18.90988 7.3414,11.34591 10.2336,12.01333 10.2336,11.56838 7.4112,29.28573 -1.6494,14.61046 -5.0944,5.7144 -8.6763,7.56393 -11.3459,5.78419 -21.1755,-6.88996 33.4113,8.8922 15.5728,-4.00444 5.3393,-5.78419 16.4627,-19.3548 6.4516,-13.34815 9.5661,-23.58171 10.2336,-19.3548 15.0068,-24.77311 -20.3461,41.68076 -1.1123,14.46048 2.8763,24.7164 c 7.5956,13.02997 14.2472,18.83624 18.6966,23.06315 l 23.874,2.39974 17.3749,-8.80007 9.0357,-15.57282 7.7864,-17.1301 4.2269,-28.0311 -2.8921,-14.68297 -6.6741,-17.35257 -8.2313,-7.34147 -11.5684,-4.2269 -18.2425,4.67182 -7.119,13.12569 -2.0022,14.90541 2.2247,15.57284 7.564,10.67851 9.3436,8.00888 11.1235,6.67406 16.9076,1.77975 12.9032,1.11236 17.7975,-9.56617 14.7146,-12.39502 13.7615,-18.75064 9.5661,-17.57506 10.6786,-26.91873 14.4604,-39.59947 1.7798,-16.01777 0.8899,-14.68297 -5.3393,-8.89876 -9.1212,-2.66962 -11.3459,8.00888 -5.3393,11.34592 -8.2313,31.14566 -7.1191,52.72514 -3.7819,28.25355 0.8899,29.36592 -1.5573,21.80196 v 22.60239 l 17.1301,-43.29201 c 0,0 13.7931,-30.92318 17.575,-33.5928 3.782,-2.66964 18.02,-15.12789 18.02,-15.12789 0,0 14.238,-7.78643 18.4649,-3.33703 4.2269,4.44936 4.8944,15.35035 5.1168,20.46713 0.2225,5.11678 -2.6696,20.91208 -2.6696,20.91208 l -7.2046,23.9503 3.2002,20.76598 c 0,0 3.1145,7.34147 6.8965,7.34147 3.782,0 13.1257,-2.00223 13.1257,-2.00223 0,0 11.7908,-6.67406 14.4605,-11.12345 2.6696,-4.44937 15.1278,-26.91874 15.1278,-26.91874 l 8.8988,-23.80419 10.456,-19.79972 10.6786,-9.56617 17.7975,-18.01998 c 0,0 9.3437,-3.11457 12.6807,-2.66965 3.337,0.44495 7.119,-2.66961 12.2358,0.44495 5.1168,3.11457 5.7842,8.00889 7.7864,11.12346 2.0022,3.11454 1.5573,12.23579 1.5573,12.23579 l -3.337,10.45604 -14.4605,13.12566 -2.8921,0.88987 5.5617,5.78419 45.3837,-47.60836 -85.873,-39.82193 -14.0156,117.10427 9.5662,18.37933 10.0111,5.11678 15.5728,0.88987 14.238,-7.34147 10.6785,-12.45825 9.7887,-20.24468 c 0,0 5.3392,-29.36592 2.0022,-16.01777 -3.3371,13.34813 -0.6674,43.15897 -0.6674,43.15897 l 12.4582,9.34371 10.901,-2.44716 32.4805,-50.72293 c 0,0 21.5571,-65.68504 12.2134,-44.55049 -9.3437,21.13454 -14.4381,59.67839 -14.4381,59.67839 l 0.3594,20.17488 10.9865,12.97299 11.7909,0.66741 14.0155,-6.22914 15.3504,-19.79975 8.6763,-18.68738 8.2313,-13.57062 9.7887,-18.68738 13.2846,-27.25426 18.2479,-44.04659 7.1771,-40.60105 c 0,0 1.5572,-12.01332 -2.6697,-16.68515 -4.2269,-4.67186 -18.9098,-8.00889 -23.1367,-2.89211 -4.227,5.11678 -11.7909,22.02442 -11.7909,22.02442 l -11.1235,31.81308 -5.1391,70.35417 5.9974,68.54281 11.5145,23.91213 16.3258,2.0404 12.0133,-8.00888 14.9054,-28.0311 9.1212,-19.3548 4.0045,-11.34591 1.3348,-87.87527 -0.2184,-37.55694 -15.731,-62.60912 -105.0826,51.59748 -0.6292,35.86652 c 0,0 6.2923,13.84321 15.1016,11.95551 8.8094,-1.88772 9.4386,-0.62926 9.4386,-11.32628 0,-10.69703 -22.6525,-6.29238 -22.6525,-6.29238 l -364.9576,-67.32838 -843.80729,18.87712 -15.73093,92.49788 24.54025,10.69704 30.83263,3.14618 21.39407,-2.51695 28.31567,-5.03389 22.02331,-8.80933"
       id="path3775"
       inkscape:path-effect="#path-effect5287"
       inkscape:original-d="m 147.84045,528.18877 c 18.46493,-16.24023 16.66055,-8.78777 24.83364,-25.66298 7.71142,-15.92196 -10.49421,-27.99948 -10.49421,-27.99948 0,0 -4.89431,-0.88987 -15.35036,-0.22246 -10.45604,0.66741 -38.72541,37.03782 -38.72541,37.03782 0,0 -6.25443,29.83724 -6.28311,40.74726 -0.0316,12.02914 13.6404,30.77979 22.98409,32.11461 9.3437,1.33479 26.47381,0.22246 30.47826,-7.11901 4.00443,-7.34148 14.01554,-22.02445 18.01998,-36.92986 4.00444,-14.90543 7.11901,-22.69183 2.44716,-17.1301 -4.67185,5.56173 -8.23135,40.48935 -1.33481,47.83082 6.89653,7.34147 14.90542,14.68294 21.13455,8.89876 6.22913,-5.78419 21.35702,-25.8064 26.02887,-38.26465 4.67185,-12.45828 23.13677,-32.48049 24.47159,-36.7074 1.33481,-4.2269 18.24245,-41.37921 18.24245,-41.37921 l 11.79086,-31.14567 4.00444,-31.81308 c 0,0 2.2247,-12.68071 -6.89655,-13.79307 -9.12122,-1.11233 -20.91207,-0.44492 -29.58836,20.91209 -8.67629,21.35703 -9.56617,76.52932 -9.56617,76.52932 l -4.67185,75.63945 -1.64943,30.31903 24.56374,-56.57035 c 0,0 13.12568,-25.8064 17.57504,-27.36368 4.44939,-1.55729 17.13011,-15.1279 21.5795,-11.79087 4.44936,3.33703 16.66281,15.48994 16.66281,15.48994 l -9.02252,40.02862 -5.66971,24.59919 c 0,0 10.26521,15.54392 17.60668,14.87651 7.34147,-0.66742 22.91432,-13.57062 22.91432,-13.57062 0,0 10.01109,-12.9032 11.56837,-23.5817 1.55729,-10.6785 26.69628,-49.61059 26.69628,-49.61059 l 15.57284,-40.48935 11.56838,-39.37701 c 0,0 2.89211,-8.00888 -2.2247,-18.24246 -5.11677,-10.23356 -26.69627,30.9232 -26.69627,30.9232 l -8.23134,51.83526 2.22469,43.8264 6.67406,37.59724 16.68518,14.01556 21.80196,-4.89431 c 0,0 18.68739,-23.35924 20.46713,-29.36592 1.77975,-6.00665 18.68739,-54.05996 18.68739,-54.05996 0,0 6.49634,-41.45829 0.0447,-30.33484 -6.4516,11.12346 5.96194,37.45385 5.96194,37.45385 0,0 20.06036,30.03331 25.84457,38.26465 5.78419,8.23138 7.56394,21.67166 3.55949,31.23783 -4.00444,9.56617 -15.95431,25.88928 -24.50974,22.82213 -51.28147,-18.38458 11.12345,-2.66962 20.24467,-3.55949 9.12122,-0.88987 23.13678,-18.24247 31.81307,-30.47826 8.67627,-12.23578 9.34369,-26.25132 16.01775,-31.36812 6.67408,-5.11678 20.46716,-21.13455 24.02665,-28.92097 3.55952,-7.7864 28.47605,-76.52933 28.47605,-76.52933 l 1.77974,-22.69183 c 0,0 -2.00223,-14.9054 -10.01112,-16.01777 -8.00888,-1.11233 -20.91208,8.6763 -23.80416,17.79752 -2.89211,9.12125 -11.34592,57.17453 -11.34592,57.17453 0,0 -2.44716,61.17896 -2.8921,68.74293 -0.44493,7.56393 -8.45381,66.29574 -3.33704,53.615 5.11678,-12.68071 24.47158,-52.94759 28.69851,-57.84194 4.22691,-4.89431 14.238,-22.02441 19.13231,-22.69183 4.89432,-0.66741 11.56841,-12.01332 22.02445,-3.33703 10.45604,8.6763 7.56393,24.91653 4.44936,34.92762 -3.11456,10.01112 -7.78639,28.47605 -8.00888,38.48714 -0.22246,10.01112 4.22693,18.46493 10.45604,18.24247 6.22914,-0.22247 20.68962,0 23.13678,-5.33927 2.44716,-5.33924 10.90099,-22.02442 15.1279,-29.81084 4.2269,-7.7864 14.23802,-26.91874 19.13234,-36.92986 4.89431,-10.01109 19.3548,-34.2602 23.35924,-34.92761 4.00444,-0.66742 21.80196,-12.01333 27.14119,-9.12122 5.33927,2.89208 17.79752,5.78419 17.57506,11.79084 -0.22246,6.00667 0.88987,24.24911 -3.78198,25.80639 -4.67183,1.55729 -14.01554,13.12569 -16.01775,11.79087 -2.00223,-1.33482 48.49823,-53.17008 48.49823,-53.17008 l -95.74838,-4.42703 -3.43463,96.20803 c 0,0 6.63592,14.3367 13.53244,18.34114 6.89655,4.00445 10.45605,7.34148 18.46493,4.67186 8.00888,-2.66965 19.57729,-3.33706 20.46716,-11.56841 0.88987,-8.23134 13.79307,-16.01776 15.35036,-25.58393 1.55728,-9.56615 2.89208,-36.48491 3.78198,-23.35925 0.88987,13.12569 -2.00224,28.25359 -2.00224,28.25359 0,0 -3.78198,18.68739 0.66742,20.46713 4.44936,1.77975 12.68073,10.90097 16.24023,8.23135 3.55949,-2.66962 16.01777,-8.45381 17.1301,-14.90541 1.11236,-6.4516 25.13902,-58.28689 27.14122,-62.95874 2.00224,-4.67183 8.23135,-17.35257 14.90544,-16.68515 6.67406,0.66741 10.90096,5.33924 10.90096,5.33924 l 2.89211,10.01111 0.66741,13.79308 -0.22249,20.68962 -4.44936,28.03107 -2.9461,28.31026 8.73029,-34.09445 5.11677,-17.1301 3.55952,-17.79752 6.00665,-14.68294 7.34148,-14.23803 7.34147,-8.67629 10.67853,-3.78198 6.00665,3.33705 4.2269,6.67406 5.11681,16.24024 -1.33483,15.57281 -3.55949,22.69186 -3.33706,17.79752 c -0.59325,3.70782 5.20744,20.12026 -2.09436,11.75269 l 18.77954,-65.59019 14.01557,-15.35036 7.34147,-1.77974 h 7.78639 l 5.78422,7.11898 3.33703,9.78866 v 16.01774 l -0.44495,17.57506 -2.2247,13.12568 -0.44492,17.35257 2.66962,9.12122 8.6763,4.00444 11.34591,-4.67183 8.00889,-7.11901 8.89875,-15.35036 9.12122,-13.34815 7.34148,-20.02221 3.78198,-7.34147 63.62615,24.4716 2.8921,-3.33705 6.6741,-8.45381 5.7842,-12.01333 7.7864,-16.46269 2.6696,-17.57505 4.4494,-15.57285 -2.4472,-8.67627 -8.6762,4.89432 1.1123,7.78639 5.3393,18.90988 7.3414,11.34591 10.2336,12.01333 10.2336,11.56838 7.4112,29.28573 -1.6494,14.61046 -5.0944,5.7144 -8.6763,7.56393 -11.3459,5.78419 -21.1755,-6.88996 33.4113,8.8922 15.5728,-4.00444 5.3393,-5.78419 16.4627,-19.3548 6.4516,-13.34815 9.5661,-23.58171 10.2336,-19.3548 15.0068,-24.77311 -20.3461,41.68076 -1.1123,14.46048 2.8763,24.7164 c 7.5956,13.02997 14.2472,18.83624 18.6966,23.06315 l 23.874,2.39974 17.3749,-8.80007 9.0357,-15.57282 7.7864,-17.1301 4.2269,-28.0311 -2.8921,-14.68297 -6.6741,-17.35257 -8.2313,-7.34147 -11.5684,-4.2269 -18.2425,4.67182 -7.119,13.12569 -2.0022,14.90541 2.2247,15.57284 7.564,10.67851 9.3436,8.00888 11.1235,6.67406 16.9076,1.77975 12.9032,1.11236 17.7975,-9.56617 14.7146,-12.39502 13.7615,-18.75064 9.5661,-17.57506 10.6786,-26.91873 14.4604,-39.59947 1.7798,-16.01777 0.8899,-14.68297 -5.3393,-8.89876 -9.1212,-2.66962 -11.3459,8.00888 -5.3393,11.34592 -8.2313,31.14566 -7.1191,52.72514 -3.7819,28.25355 0.8899,29.36592 -1.5573,21.80196 v 22.60239 l 17.1301,-43.29201 c 0,0 13.7931,-30.92318 17.575,-33.5928 3.782,-2.66964 18.02,-15.12789 18.02,-15.12789 0,0 14.238,-7.78643 18.4649,-3.33703 4.2269,4.44936 4.8944,15.35035 5.1168,20.46713 0.2225,5.11678 -2.6696,20.91208 -2.6696,20.91208 l -7.2046,23.9503 3.2002,20.76598 c 0,0 3.1145,7.34147 6.8965,7.34147 3.782,0 13.1257,-2.00223 13.1257,-2.00223 0,0 11.7908,-6.67406 14.4605,-11.12345 2.6696,-4.44937 15.1278,-26.91874 15.1278,-26.91874 l 8.8988,-23.80419 10.456,-19.79972 10.6786,-9.56617 17.7975,-18.01998 c 0,0 9.3437,-3.11457 12.6807,-2.66965 3.337,0.44495 7.119,-2.66961 12.2358,0.44495 5.1168,3.11457 5.7842,8.00889 7.7864,11.12346 2.0022,3.11454 1.5573,12.23579 1.5573,12.23579 l -3.337,10.45604 -14.4605,13.12566 -2.8921,0.88987 5.5617,5.78419 45.3837,-47.60836 -85.873,-39.82193 -14.0156,117.10427 9.5662,18.37933 10.0111,5.11678 15.5728,0.88987 14.238,-7.34147 10.6785,-12.45825 9.7887,-20.24468 c 0,0 5.3392,-29.36592 2.0022,-16.01777 -3.3371,13.34813 -0.6674,43.15897 -0.6674,43.15897 l 12.4582,9.34371 10.901,-2.44716 32.4805,-50.72293 c 0,0 21.5571,-65.68504 12.2134,-44.55049 -9.3437,21.13454 -14.4381,59.67839 -14.4381,59.67839 l 0.3594,20.17488 10.9865,12.97299 11.7909,0.66741 14.0155,-6.22914 15.3504,-19.79975 8.6763,-18.68738 8.2313,-13.57062 9.7887,-18.68738 13.2846,-27.25426 18.2479,-44.04659 7.1771,-40.60105 c 0,0 1.5572,-12.01332 -2.6697,-16.68515 -4.2269,-4.67186 -18.9098,-8.00889 -23.1367,-2.89211 -4.227,5.11678 -11.7909,22.02442 -11.7909,22.02442 l -11.1235,31.81308 -5.1391,70.35417 5.9974,68.54281 11.5145,23.91213 16.3258,2.0404 12.0133,-8.00888 14.9054,-28.0311 9.1212,-19.3548 4.0045,-11.34591 1.3348,-87.87527 -0.2184,-37.55694 -15.731,-62.60912 -105.0826,51.59748 -0.6292,35.86652 c 0,0 6.2923,13.84321 15.1016,11.95551 8.8094,-1.88772 9.4386,-0.62926 9.4386,-11.32628 0,-10.69703 -22.6525,-6.29238 -22.6525,-6.29238 l -364.9576,-67.32838 -843.80729,18.87712 -15.73093,92.49788 24.54025,10.69704 30.83263,3.14618 21.39407,-2.51695 28.31567,-5.03389 22.02331,-8.80933"
       class="UnoptimicedTransforms"
       sodipodi:nodetypes="cscscssssssssscccssccccsscccscscccsccccccscscsssssssccsscsssssssssssssssscccssssscssssscccccccccccccccccccccccccccccccccccccccccccccccccccccccccccccccccccccccccccccccccccccccccccccccccccccccccccscsscccscscccccsssccccccccccccccsccccsccccccccccccsscccccccccccccccssccccccccc" />
  </g>
</svg>
