<?xml version="1.0" encoding="UTF-8" standalone="no"?>
<!-- Created with Inkscape (http://www.inkscape.org/) -->

<svg
   width="1920mm"
   height="1080mm"
   viewBox="0 0 1920 1080"
   version="1.1"
   id="svg5"
   xmlns="http://www.w3.org/2000/svg"
   xmlns:svg="http://www.w3.org/2000/svg">
  <defs
     id="defs2">
    <rect
       x="385.27159"
       y="599.31136"
       width="3771.8564"
       height="3067.9034"
       id="rect270" />
    <clipPath
       clipPathUnits="userSpaceOnUse"
       id="clipPath17833">
      <g
         aria-label="ahtsham sohail "
         transform="translate(-166.11865,128.36441)"
         id="g17861"
         style="font-size:352.778px;line-height:10;white-space:pre;inline-size:1858.92;display:inline;stroke-width:0.264583">
        <path
           d="m 399.26377,388.1594 q -7.06245,19.1203 -12.91911,32.03941 -5.68442,12.91912 -11.19657,20.84284 -5.3399,7.92373 -10.67981,11.36883 -5.3399,3.44509 -11.71333,3.44509 -7.75147,0 -13.26362,-5.3399 -5.51216,-5.51215 -6.8902,-16.88098 -5.51216,11.88559 -14.29716,19.46481 -8.785,7.40696 -22.04862,7.40696 -7.06245,0 -13.60814,-2.58383 -6.37343,-2.58382 -11.36882,-7.92372 -4.99539,-5.51216 -8.09598,-13.78039 -2.92833,-8.26824 -2.92833,-19.46481 0,-11.36882 2.75607,-21.3596 2.92834,-9.99079 7.57922,-18.25902 4.65088,-8.44049 10.6798,-14.98618 6.20118,-6.54568 12.74686,-11.02431 6.54569,-4.47863 13.09138,-6.89019 6.54568,-2.41157 12.05784,-2.41157 4.82313,0 9.30176,1.20578 4.47863,1.20579 7.92373,3.96186 3.61735,2.58383 5.68441,7.06245 2.23931,4.47863 2.23931,11.19657 0,7.92373 -3.10059,13.78039 -2.92833,5.85667 -7.2347,9.81853 -4.13412,3.96186 -8.61275,6.37343 -4.30637,2.41157 -6.89019,3.4451 l -2.06706,-6.71794 q 0.51676,0 3.78961,-1.37804 3.4451,-1.37804 7.06245,-4.47863 3.78961,-3.27284 6.89019,-8.26823 3.10059,-4.99539 3.10059,-12.2301 0,-8.26823 -4.65088,-12.57461 -4.65088,-4.47862 -11.88559,-4.47862 -5.51215,0 -12.91911,3.96186 -7.40696,3.96186 -14.29716,12.40235 -6.71794,8.44049 -11.54108,21.35961 -4.65088,12.91912 -4.65088,30.83362 0,17.74226 6.20118,27.04402 6.37343,9.30177 17.05323,9.30177 5.3399,0 10.16304,-2.92834 4.99539,-3.10059 9.12951,-8.09598 4.13411,-4.99539 7.40696,-11.54108 3.27284,-6.71794 5.68441,-13.78039 0,-5.51215 1.20578,-12.91911 1.37804,-7.57922 4.13412,-15.33069 l 10.50755,3.4451 q -0.86128,2.23931 -1.72255,5.85667 -0.86127,3.61735 -1.72255,7.92372 -0.68902,4.30637 -1.20578,8.95726 -0.51677,4.47862 -0.51677,8.78499 0,13.43589 2.58383,18.60353 2.75607,4.99539 9.30176,4.99539 3.78961,0 7.40696,-2.75607 3.78961,-2.75608 8.09598,-9.64628 4.30637,-6.89019 9.47402,-18.60353 5.16765,-11.88558 12.05784,-29.97235 z"
           style="font-family:'Clicker Script';-inkscape-font-specification:'Clicker Script'"
           id="path17835" />
        <path
           d="m 449.73446,276.36598 q 0,10.85206 -3.78961,24.28794 -3.61735,13.43588 -9.99078,29.28333 -6.37343,15.84745 -14.98618,34.10647 -8.44049,18.08676 -18.08676,38.24058 -0.86128,8.26824 -1.5503,16.70873 -0.51676,8.26823 -1.03353,16.70872 2.23932,-5.68441 5.51216,-13.09137 3.4451,-7.57921 7.57922,-15.50294 4.30637,-8.09598 9.30176,-15.84745 4.99539,-7.75147 10.50755,-13.78039 5.68441,-6.20118 11.88559,-9.99078 6.37343,-3.78961 13.09137,-3.78961 4.65088,0 8.44049,1.72255 3.7896,1.72255 6.37343,4.82313 2.75608,3.10059 4.13411,7.23471 1.5503,4.13412 1.5503,8.95725 0,6.20118 -1.72255,13.43588 -1.55029,7.06246 -3.61735,14.46942 -2.06706,7.40696 -3.78961,14.81392 -1.55029,7.40696 -1.55029,13.95264 0,5.3399 2.58382,9.12951 2.58382,3.61735 9.47402,3.61735 4.82314,0 9.47402,-3.96186 4.65088,-3.96186 8.95725,-10.16304 4.30637,-6.37343 7.92373,-14.1249 3.7896,-7.92372 6.89019,-15.67519 3.27284,-7.75147 5.68441,-14.46941 2.58383,-6.8902 4.13412,-11.02432 l 6.71794,1.72255 q -2.92833,7.75147 -6.02892,16.36422 -3.10059,8.61274 -6.71794,17.22549 -3.4451,8.44049 -7.57922,16.19196 -4.13411,7.75147 -9.1295,13.78039 -4.82314,5.85666 -10.67981,9.47402 -5.85666,3.44509 -13.09137,3.44509 -6.54569,0 -10.85206,-1.8948 -4.30637,-1.8948 -6.89019,-5.16765 -2.41157,-3.27284 -3.4451,-7.75147 -1.03353,-4.65088 -1.03353,-10.16304 0,-5.85666 1.72255,-13.26362 1.72255,-7.57922 3.78961,-15.50294 2.23931,-8.09598 3.96186,-16.01971 1.72255,-8.09598 1.72255,-14.81392 0,-3.78961 -1.89481,-6.71794 -1.72255,-2.92833 -6.20117,-2.92833 -7.06245,0 -13.60814,5.16765 -6.54568,4.99539 -12.40235,13.09137 -5.85667,8.09598 -11.02431,18.25902 -5.16765,10.16303 -9.47402,20.32607 -4.30638,9.99079 -7.75147,19.1203 -3.27285,9.1295 -5.68441,15.15843 l -6.71795,-1.03353 q 0,-0.86128 -0.17225,-2.23932 0,-1.55029 0,-4.13411 0,-2.58383 -0.17225,-6.37344 0,-3.96186 0,-9.47401 0,-16.19196 0.86127,-42.71922 0.86127,-26.52725 4.13412,-63.56205 1.37804,-18.08677 4.13411,-30.83363 2.75608,-12.91911 6.20118,-21.53186 3.4451,-8.785 7.23471,-13.95264 3.96186,-5.16765 7.57921,-7.75147 3.61735,-2.75608 6.71794,-3.4451 3.10059,-0.86128 5.16765,-0.86128 7.92372,0 12.57461,6.20118 4.65088,6.20118 4.65088,16.53647 z m -16.88098,-15.6752 q -4.47863,0 -8.09598,4.47863 -3.4451,4.30637 -6.37343,12.40235 -2.75608,7.92373 -4.82314,19.1203 -2.06706,11.19656 -3.78961,24.97695 -1.72255,13.60814 -3.10059,29.45559 -1.20578,15.6752 -2.41156,32.72843 8.09598,-15.50294 14.98617,-30.66137 7.06245,-15.33069 12.2301,-29.28333 5.16765,-13.95265 8.09598,-26.01049 3.10059,-12.2301 3.10059,-21.53186 0,-2.75608 -0.51677,-5.51216 -0.34451,-2.92833 -1.55029,-5.16764 -1.03353,-2.23932 -2.92833,-3.61736 -1.89481,-1.37804 -4.82314,-1.37804 z"
           style="font-family:'Clicker Script';-inkscape-font-specification:'Clicker Script'"
           id="path17837" />
        <path
           d="m 486.76927,325.63088 q 2.58383,1.55029 6.20118,3.61735 3.61735,2.06706 8.44049,3.96186 4.82314,1.89481 10.6798,3.61735 6.02892,1.5503 13.09137,2.23932 2.41157,-15.50294 6.20118,-27.90529 3.78961,-12.57461 8.26823,-21.35961 4.65089,-8.95725 9.47402,-13.60814 4.9954,-4.82313 9.64628,-4.82313 5.3399,0 7.57921,4.13411 2.23932,4.13412 2.23932,11.02432 0,4.99539 -1.03353,11.02431 -1.03353,6.02892 -2.75608,12.91912 -1.72255,6.71794 -4.13412,14.1249 -2.41157,7.2347 -4.99539,14.46941 17.22549,-1.5503 31.6949,-5.68441 14.64167,-4.13412 25.32147,-8.44049 l 3.27284,6.37343 q -14.1249,5.3399 -29.28333,9.64627 -15.15843,4.13412 -33.93421,5.16765 -4.30638,11.19657 -8.95726,21.35961 -4.47862,9.99078 -8.26823,17.39774 0.17225,9.64627 1.03353,21.0151 1.03353,11.19656 3.7896,21.01509 2.92834,9.81853 8.09598,16.36422 5.33991,6.54568 13.95265,6.54568 7.23471,0 13.26363,-6.02892 6.02892,-6.20117 11.02431,-15.50294 5.16765,-9.47402 9.47402,-20.67059 4.30637,-11.19656 8.09598,-21.18735 l 6.71794,1.72255 q -2.41157,6.20118 -5.16765,13.95265 -2.75608,7.75147 -6.20117,15.84745 -3.4451,7.92372 -7.57922,15.50294 -4.13412,7.40696 -9.12951,13.43588 -4.99539,5.85667 -11.02431,9.47402 -6.02892,3.4451 -13.09137,3.4451 -7.57922,0 -14.29716,-3.4451 -6.54568,-3.4451 -11.54108,-12.2301 -4.82313,-8.95725 -7.75147,-24.11568 -2.75607,-15.33069 -2.75607,-38.92961 0,-18.94804 2.06705,-35.31225 -14.81392,-1.8948 -24.8047,-5.85667 -10.16304,-4.13411 -15.67519,-7.92372 z m 73.03608,-45.13078 q -1.5503,0 -4.65089,3.10058 -3.10058,3.10059 -6.54568,10.16304 -3.4451,6.8902 -6.71794,18.25902 -3.10059,11.19657 -4.99539,27.73304 h 3.27284 8.44049 q 3.10059,-8.61275 5.3399,-16.70873 2.41157,-8.09598 4.13412,-14.98617 1.72255,-7.06245 2.58382,-12.57461 0.86128,-5.68441 0.86128,-9.30176 0,-5.68441 -1.72255,-5.68441 z m -24.28794,90.60607 q 2.92833,-6.02892 5.51215,-12.05784 2.58383,-6.20118 4.9954,-12.57461 h -6.37344 -3.44509 q -0.34451,5.51216 -0.51677,11.71333 -0.17225,6.02892 -0.17225,12.57461 z"
           style="font-family:'Clicker Script';-inkscape-font-specification:'Clicker Script'"
           id="path17839" />
        <path
           d="m 616.64946,373.34548 q -1.89481,4.99539 -3.78961,9.81853 -1.72255,4.82314 -3.96186,9.64627 -2.06706,4.82314 -4.99539,9.47402 -2.92834,4.65089 -7.06246,9.47402 l -1.37803,-1.37804 q 4.47862,-10.85206 7.92372,-22.22088 3.4451,-11.36882 6.8902,-25.49372 -0.86128,-2.41157 -1.5503,-4.13412 -0.68902,-1.72255 -1.20578,-3.10059 -0.51677,-1.55029 -0.86128,-3.10058 -0.34451,-1.72255 -0.34451,-3.78961 0,-2.75608 0.68902,-6.02892 0.86128,-3.4451 2.23932,-6.37343 1.55029,-2.92834 3.44509,-4.82314 1.89481,-2.06706 3.96187,-2.06706 2.41157,0 3.7896,1.20578 1.5503,1.03353 2.41157,2.75608 0.86128,1.72255 1.20579,3.61735 0.34451,1.89481 0.34451,3.61736 0,2.58382 -0.68902,6.02892 -0.51677,3.27284 -1.37804,6.54568 -0.68902,3.10059 -1.37804,5.51216 -0.51677,2.41157 -0.51677,3.10059 1.37804,4.65088 4.65089,9.47402 3.44509,4.82314 7.75147,9.81853 4.30637,4.99539 8.95725,10.50755 4.82314,5.3399 8.61275,11.36882 3.96186,6.02892 6.37343,12.91911 2.58382,6.71795 2.58382,14.29716 0,10.85206 -3.27284,17.57 -3.10059,6.71794 -8.44049,10.33529 7.75147,-3.10059 14.46941,-11.02431 6.89019,-7.92373 12.57461,-18.08676 5.85666,-10.3353 10.6798,-21.53186 4.99539,-11.19657 8.785,-20.84285 l 6.71794,1.72255 q -5.85667,14.98618 -12.40235,29.28333 -6.54569,14.29716 -14.81392,25.49373 -8.26824,11.19657 -18.77579,18.08676 -10.33529,6.8902 -23.77117,6.8902 -3.61735,0 -7.40696,-0.51677 -3.61736,-0.68902 -7.23471,-1.8948 -3.4451,-1.37804 -6.54568,-3.61735 -3.10059,-2.23932 -5.33991,-5.33991 l 5.68442,-3.7896 q 1.55029,2.41156 4.82313,4.47862 3.27285,2.06706 8.61275,2.06706 5.16764,0 8.95725,-2.06706 3.96186,-2.23931 6.54569,-5.85666 2.75608,-3.78961 3.96186,-8.785 1.37804,-4.99539 1.37804,-10.67981 0,-11.71333 -3.4451,-20.15382 -3.27284,-8.44049 -7.92372,-14.98617 -4.47863,-6.71794 -9.30177,-12.2301 -4.65088,-5.51216 -7.2347,-11.19657 z"
           style="font-family:'Clicker Script';-inkscape-font-specification:'Clicker Script'"
           id="path17841" />
        <path
           d="m 751.35278,276.36598 q 0,10.85206 -3.78961,24.28794 -3.61735,13.43588 -9.99078,29.28333 -6.37343,15.84745 -14.98617,34.10647 -8.44049,18.08676 -18.08677,38.24058 -0.86127,8.26824 -1.55029,16.70873 -0.51677,8.26823 -1.03353,16.70872 2.23931,-5.68441 5.51215,-13.09137 3.4451,-7.57921 7.57922,-15.50294 4.30637,-8.09598 9.30176,-15.84745 4.9954,-7.75147 10.50755,-13.78039 5.68441,-6.20118 11.88559,-9.99078 6.37343,-3.78961 13.09137,-3.78961 4.65088,0 8.44049,1.72255 3.78961,1.72255 6.37343,4.82313 2.75608,3.10059 4.13412,7.23471 1.55029,4.13412 1.55029,8.95725 0,6.20118 -1.72255,13.43588 -1.55029,7.06246 -3.61735,14.46942 -2.06706,7.40696 -3.78961,14.81392 -1.55029,7.40696 -1.55029,13.95264 0,5.3399 2.58382,9.12951 2.58383,3.61735 9.47402,3.61735 4.82314,0 9.47402,-3.96186 4.65088,-3.96186 8.95726,-10.16304 4.30637,-6.37343 7.92372,-14.1249 3.78961,-7.92372 6.8902,-15.67519 3.27284,-7.75147 5.68441,-14.46941 2.58382,-6.8902 4.13411,-11.02432 l 6.71795,1.72255 q -2.92834,7.75147 -6.02893,16.36422 -3.10058,8.61274 -6.71794,17.22549 -3.44509,8.44049 -7.57921,16.19196 -4.13412,7.75147 -9.12951,13.78039 -4.82314,5.85666 -10.6798,9.47402 -5.85667,3.44509 -13.09138,3.44509 -6.54568,0 -10.85205,-1.8948 -4.30638,-1.8948 -6.8902,-5.16765 -2.41157,-3.27284 -3.4451,-7.75147 -1.03353,-4.65088 -1.03353,-10.16304 0,-5.85666 1.72255,-13.26362 1.72255,-7.57922 3.78961,-15.50294 2.23931,-8.09598 3.96186,-16.01971 1.72255,-8.09598 1.72255,-14.81392 0,-3.78961 -1.8948,-6.71794 -1.72255,-2.92833 -6.20118,-2.92833 -7.06245,0 -13.60813,5.16765 -6.54569,4.99539 -12.40236,13.09137 -5.85666,8.09598 -11.02431,18.25902 -5.16765,10.16303 -9.47402,20.32607 -4.30637,9.99079 -7.75147,19.1203 -3.27284,9.1295 -5.68441,15.15843 l -6.71794,-1.03353 q 0,-0.86128 -0.17226,-2.23932 0,-1.55029 0,-4.13411 0,-2.58383 -0.17225,-6.37344 0,-3.96186 0,-9.47401 0,-16.19196 0.86127,-42.71922 0.86128,-26.52725 4.13412,-63.56205 1.37804,-18.08677 4.13412,-30.83363 2.75608,-12.91911 6.20117,-21.53186 3.4451,-8.785 7.23471,-13.95264 3.96186,-5.16765 7.57922,-7.75147 3.61735,-2.75608 6.71794,-3.4451 3.10058,-0.86128 5.16764,-0.86128 7.92373,0 12.57461,6.20118 4.65088,6.20118 4.65088,16.53647 z m -16.88098,-15.6752 q -4.47862,0 -8.09598,4.47863 -3.4451,4.30637 -6.37343,12.40235 -2.75608,7.92373 -4.82314,19.1203 -2.06705,11.19656 -3.7896,24.97695 -1.72255,13.60814 -3.10059,29.45559 -1.20579,15.6752 -2.41157,32.72843 8.09598,-15.50294 14.98618,-30.66137 7.06245,-15.33069 12.23009,-29.28333 5.16765,-13.95265 8.09598,-26.01049 3.10059,-12.2301 3.10059,-21.53186 0,-2.75608 -0.51676,-5.51216 -0.34451,-2.92833 -1.5503,-5.16764 -1.03353,-2.23932 -2.92833,-3.61736 -1.8948,-1.37804 -4.82314,-1.37804 z"
           style="font-family:'Clicker Script';-inkscape-font-specification:'Clicker Script'"
           id="path17843" />
        <path
           d="m 957.36961,388.1594 q -7.06245,19.1203 -12.91912,32.03941 -5.68441,12.91912 -11.19657,20.84284 -5.3399,7.92373 -10.6798,11.36883 -5.3399,3.44509 -11.71333,3.44509 -7.75147,0 -13.26363,-5.3399 -5.51216,-5.51215 -6.8902,-16.88098 -5.51215,11.88559 -14.29715,19.46481 -8.785,7.40696 -22.04863,7.40696 -7.06245,0 -13.60813,-2.58383 -6.37343,-2.58382 -11.36883,-7.92372 -4.99539,-5.51216 -8.09598,-13.78039 -2.92833,-8.26824 -2.92833,-19.46481 0,-11.36882 2.75608,-21.3596 2.92833,-9.99079 7.57921,-18.25902 4.65089,-8.44049 10.67981,-14.98618 6.20117,-6.54568 12.74686,-11.02431 6.54568,-4.47863 13.09137,-6.89019 6.54569,-2.41157 12.05784,-2.41157 4.82314,0 9.30177,1.20578 4.47862,1.20579 7.92372,3.96186 3.61735,2.58383 5.68441,7.06245 2.23932,4.47863 2.23932,11.19657 0,7.92373 -3.10059,13.78039 -2.92833,5.85667 -7.23471,9.81853 -4.13411,3.96186 -8.61274,6.37343 -4.30637,2.41157 -6.8902,3.4451 l -2.06706,-6.71794 q 0.51677,0 3.78961,-1.37804 3.4451,-1.37804 7.06245,-4.47863 3.78961,-3.27284 6.8902,-8.26823 3.10059,-4.99539 3.10059,-12.2301 0,-8.26823 -4.65089,-12.57461 -4.65088,-4.47862 -11.88558,-4.47862 -5.51216,0 -12.91912,3.96186 -7.40696,3.96186 -14.29716,12.40235 -6.71794,8.44049 -11.54107,21.35961 -4.65089,12.91912 -4.65089,30.83362 0,17.74226 6.20118,27.04402 6.37343,9.30177 17.05323,9.30177 5.33991,0 10.16304,-2.92834 4.9954,-3.10059 9.12951,-8.09598 4.13412,-4.99539 7.40696,-11.54108 3.27285,-6.71794 5.68441,-13.78039 0,-5.51215 1.20579,-12.91911 1.37804,-7.57922 4.13412,-15.33069 l 10.50754,3.4451 q -0.86127,2.23931 -1.72254,5.85667 -0.86128,3.61735 -1.72255,7.92372 -0.68902,4.30637 -1.20579,8.95726 -0.51676,4.47862 -0.51676,8.78499 0,13.43589 2.58382,18.60353 2.75608,4.99539 9.30176,4.99539 3.78961,0 7.40697,-2.75607 3.7896,-2.75608 8.09597,-9.64628 4.30638,-6.89019 9.47402,-18.60353 5.16765,-11.88558 12.05785,-29.97235 z"
           style="font-family:'Clicker Script';-inkscape-font-specification:'Clicker Script'"
           id="path17845" />
        <path
           d="m 950.65168,386.43685 q 5.51215,-16.19196 11.88558,-24.11568 6.37343,-8.09598 14.98618,-8.09598 3.78961,0 7.06245,1.72255 3.4451,1.72255 6.02892,5.68441 2.58382,3.78961 3.96186,9.99078 1.5503,6.20118 1.5503,15.15843 7.75143,-19.80931 15.67523,-28.2498 7.9237,-8.44049 17.2255,-8.44049 3.445,0 6.8901,1.37804 3.6174,1.37804 6.3735,4.99539 2.9283,3.4451 4.8231,9.47402 1.8948,6.02892 2.0671,15.15843 4.6509,-9.12951 11.5411,-14.81392 7.0624,-5.68441 15.5029,-5.68441 4.1341,0 8.2682,1.55029 4.1341,1.37804 7.2347,4.82314 3.2729,3.4451 5.3399,9.12951 2.0671,5.51216 2.0671,13.78039 0,2.41157 -0.3445,6.37343 -0.3445,3.78961 -0.8613,8.44049 -0.5168,4.65088 -1.0335,9.47402 -0.5168,4.82314 -1.0336,9.12951 -0.5167,4.13412 -0.8612,7.40696 -0.3445,3.10059 -0.3445,4.30637 0,10.16304 2.4115,14.81392 2.4116,4.65088 8.785,4.65088 4.8232,0 9.8186,-5.68441 4.9954,-5.85666 10.163,-15.33068 5.1676,-9.47402 10.5075,-21.70412 5.3399,-12.2301 10.8521,-25.32147 l 6.7179,1.72255 q -4.9953,11.88559 -10.3352,25.14922 -5.3399,13.26362 -11.7134,24.46019 -6.2012,11.19657 -13.4359,18.60353 -7.2347,7.2347 -16.0197,7.2347 -10.163,0 -15.5029,-6.02892 -5.3399,-6.02892 -5.3399,-20.15382 0,-6.20118 0.8613,-13.09137 0.8612,-7.06245 1.8948,-13.95265 1.2058,-7.06245 2.067,-13.60813 0.8613,-6.71794 0.8613,-12.2301 0,-3.10059 -0.5168,-6.20118 -0.5167,-3.10058 -1.8948,-5.51215 -1.2057,-2.58383 -3.4451,-3.96187 -2.067,-1.55029 -5.5121,-1.55029 -4.3064,0 -8.2683,4.13412 -3.9618,4.13412 -7.5792,11.02431 -3.6173,6.8902 -6.7179,15.84745 -3.1006,8.785 -5.5122,18.25902 -2.4115,9.30176 -4.3063,18.60353 -1.8948,9.12951 -2.9284,16.70872 l -12.2301,-2.06706 q 0,0 0.8613,-4.13411 0.8613,-4.30638 1.8948,-10.85206 1.2058,-6.71794 2.5838,-14.98618 1.3781,-8.44049 2.4116,-16.88098 1.2058,-8.44049 1.8948,-16.19196 0.8613,-7.75147 0.8613,-13.09137 0,-7.2347 -2.7561,-11.88559 -2.7561,-4.65088 -8.096,-4.65088 -4.9954,0 -9.6463,5.68441 -4.4786,5.68441 -8.4404,14.98618 -3.9619,9.12951 -7.407,20.84284 -3.4451,11.54108 -6.37343,23.42667 -2.92834,11.71333 -5.16765,22.56539 -2.23931,10.85205 -3.96186,18.60352 l -11.54108,-2.75607 q 2.41157,-11.88559 4.30637,-24.11569 1.72255,-10.50755 3.10059,-23.08215 1.37804,-12.57461 1.37804,-24.4602 0,-7.57921 -0.34451,-12.57461 -0.34451,-5.16764 -1.37804,-8.26823 -1.03353,-3.10059 -2.92833,-4.30637 -1.72255,-1.37804 -4.47863,-1.37804 -4.30637,0 -8.785,6.20117 -4.47863,6.20118 -8.95725,19.63706 z"
           style="font-family:'Clicker Script';-inkscape-font-specification:'Clicker Script'"
           id="path17847" />
        <path
           d="m 1237.2838,373.34548 q -1.8948,4.99539 -3.7896,9.81853 -1.7225,4.82314 -3.9618,9.64627 -2.0671,4.82314 -4.9954,9.47402 -2.9284,4.65089 -7.0625,9.47402 l -1.378,-1.37804 q 4.4786,-10.85206 7.9237,-22.22088 3.4451,-11.36882 6.8902,-25.49372 -0.8613,-2.41157 -1.5503,-4.13412 -0.689,-1.72255 -1.2058,-3.10059 -0.5167,-1.55029 -0.8613,-3.10058 -0.3445,-1.72255 -0.3445,-3.78961 0,-2.75608 0.6891,-6.02892 0.8612,-3.4451 2.2393,-6.37343 1.5503,-2.92834 3.4451,-4.82314 1.8948,-2.06706 3.9618,-2.06706 2.4116,0 3.7896,1.20578 1.5503,1.03353 2.4116,2.75608 0.8613,1.72255 1.2058,3.61735 0.3445,1.89481 0.3445,3.61736 0,2.58382 -0.689,6.02892 -0.5168,3.27284 -1.3781,6.54568 -0.689,3.10059 -1.378,5.51216 -0.5168,2.41157 -0.5168,3.10059 1.3781,4.65088 4.6509,9.47402 3.4451,4.82314 7.7515,9.81853 4.3064,4.99539 8.9572,10.50755 4.8232,5.3399 8.6128,11.36882 3.9618,6.02892 6.3734,12.91911 2.5838,6.71795 2.5838,14.29716 0,10.85206 -3.2728,17.57 -3.1006,6.71794 -8.4405,10.33529 7.7515,-3.10059 14.4694,-11.02431 6.8902,-7.92373 12.5746,-18.08676 5.8567,-10.3353 10.6798,-21.53186 4.9954,-11.19657 8.785,-20.84285 l 6.718,1.72255 q -5.8567,14.98618 -12.4024,29.28333 -6.5457,14.29716 -14.8139,25.49373 -8.2682,11.19657 -18.7758,18.08676 -10.3353,6.8902 -23.7712,6.8902 -3.6173,0 -7.4069,-0.51677 -3.6174,-0.68902 -7.2347,-1.8948 -3.4451,-1.37804 -6.5457,-3.61735 -3.1006,-2.23932 -5.3399,-5.33991 l 5.6844,-3.7896 q 1.5503,2.41156 4.8231,4.47862 3.2729,2.06706 8.6128,2.06706 5.1676,0 8.9572,-2.06706 3.9619,-2.23931 6.5457,-5.85666 2.7561,-3.78961 3.9619,-8.785 1.378,-4.99539 1.378,-10.67981 0,-11.71333 -3.4451,-20.15382 -3.2728,-8.44049 -7.9237,-14.98617 -4.4786,-6.71794 -9.3018,-12.2301 -4.6509,-5.51216 -7.2347,-11.19657 z"
           style="font-family:'Clicker Script';-inkscape-font-specification:'Clicker Script'"
           id="path17849" />
        <path
           d="m 1357.8622,455.16655 q 9.6463,0 18.4313,-7.06245 8.9573,-7.06245 13.9527,-20.49833 h -1.3781 q -10.6798,0 -19.8093,-3.61735 -8.9572,-3.61735 -15.6752,-9.99078 -6.5457,-6.54569 -10.3353,-15.50294 -3.7896,-9.12951 -3.7896,-19.98157 0,-6.02892 1.5503,-12.2301 1.7226,-6.20117 5.1677,-11.02431 3.4451,-4.99539 8.9572,-8.09598 5.5122,-3.10059 13.0914,-3.10059 6.2012,0 12.2301,2.58382 6.0289,2.41157 10.852,8.44049 4.8232,6.02892 7.7515,16.36422 3.1006,10.16304 3.1006,25.83823 0,5.85667 -0.5168,11.71333 -0.5167,5.68442 -1.8948,11.19657 6.718,-1.20578 11.8856,-4.30637 5.3399,-3.10059 9.3018,-7.40696 4.1341,-4.47863 7.2347,-9.99078 3.1006,-5.68442 5.6844,-12.05785 l 6.7179,1.72255 q -3.6173,9.81853 -8.4404,16.70873 -4.6509,6.89019 -10.1631,11.54107 -5.3399,4.65089 -11.3688,7.23471 -5.8567,2.41157 -12.2301,3.27284 -2.4116,8.44049 -6.3734,15.84745 -3.9619,7.40696 -9.6463,12.91912 -5.6844,5.51216 -13.2636,8.785 -7.407,3.10059 -16.7088,3.10059 -7.7514,0 -15.6752,-3.10059 -7.7514,-3.27284 -14.1249,-9.81853 -6.2011,-6.71794 -10.163,-16.70872 -3.7896,-10.16304 -3.7896,-24.11569 0,-9.12951 2.0671,-17.91451 2.2393,-8.785 6.0289,-16.53647 3.9618,-7.92372 9.3017,-14.64166 5.3399,-6.8902 11.5411,-11.88559 l 2.5838,4.30637 q -3.9618,3.61735 -7.5792,8.95726 -3.6173,5.3399 -6.5457,11.88558 -2.9283,6.37343 -4.6508,13.60814 -1.7226,7.06245 -1.7226,14.1249 0,13.95265 3.4451,23.42667 3.6174,9.47402 9.1295,15.33068 5.5122,5.68441 12.4024,8.26824 6.8902,2.41156 13.4358,2.41156 z m 9.8186,-104.38646 q -4.6509,0 -8.6128,2.06706 -3.9618,1.8948 -6.8902,5.3399 -2.9283,3.4451 -4.6508,8.26824 -1.7226,4.82313 -1.7226,10.6798 0,10.16304 3.4451,18.25902 3.4451,8.09598 9.3018,13.78039 6.0289,5.68441 13.9526,8.785 7.9237,2.92833 17.0532,2.92833 h 3.2729 q 1.378,-5.3399 1.8948,-11.19657 0.5168,-5.85666 0.5168,-12.74686 -0.3445,-13.26362 -2.7561,-22.04862 -2.2393,-8.95726 -5.8567,-14.29716 -3.6173,-5.3399 -8.6127,-7.57922 -4.8232,-2.23931 -10.3353,-2.23931 z"
           style="font-family:'Clicker Script';-inkscape-font-specification:'Clicker Script'"
           id="path17851" />
        <path
           d="m 1490.843,276.36598 q 0,10.85206 -3.7896,24.28794 -3.6174,13.43588 -9.9908,29.28333 -6.3734,15.84745 -14.9862,34.10647 -8.4405,18.08676 -18.0867,38.24058 -0.8613,8.26824 -1.5503,16.70873 -0.5168,8.26823 -1.0336,16.70872 2.2393,-5.68441 5.5122,-13.09137 3.4451,-7.57921 7.5792,-15.50294 4.3064,-8.09598 9.3018,-15.84745 4.9954,-7.75147 10.5075,-13.78039 5.6844,-6.20118 11.8856,-9.99078 6.3734,-3.78961 13.0914,-3.78961 4.6509,0 8.4405,1.72255 3.7896,1.72255 6.3734,4.82313 2.7561,3.10059 4.1341,7.23471 1.5503,4.13412 1.5503,8.95725 0,6.20118 -1.7225,13.43588 -1.5503,7.06246 -3.6174,14.46942 -2.0671,7.40696 -3.7896,14.81392 -1.5503,7.40696 -1.5503,13.95264 0,5.3399 2.5838,9.12951 2.5839,3.61735 9.474,3.61735 4.8232,0 9.4741,-3.96186 4.6508,-3.96186 8.9572,-10.16304 4.3064,-6.37343 7.9237,-14.1249 3.7897,-7.92372 6.8902,-15.67519 3.2729,-7.75147 5.6845,-14.46941 2.5838,-6.8902 4.1341,-11.02432 l 6.7179,1.72255 q -2.9283,7.75147 -6.0289,16.36422 -3.1006,8.61274 -6.718,17.22549 -3.4451,8.44049 -7.5792,16.19196 -4.1341,7.75147 -9.1295,13.78039 -4.8231,5.85666 -10.6798,9.47402 -5.8566,3.44509 -13.0914,3.44509 -6.5456,0 -10.852,-1.8948 -4.3064,-1.8948 -6.8902,-5.16765 -2.4116,-3.27284 -3.4451,-7.75147 -1.0335,-4.65088 -1.0335,-10.16304 0,-5.85666 1.7225,-13.26362 1.7226,-7.57922 3.7896,-15.50294 2.2393,-8.09598 3.9619,-16.01971 1.7225,-8.09598 1.7225,-14.81392 0,-3.78961 -1.8948,-6.71794 -1.7225,-2.92833 -6.2011,-2.92833 -7.0625,0 -13.6082,5.16765 -6.5457,4.99539 -12.4023,13.09137 -5.8567,8.09598 -11.0243,18.25902 -5.1677,10.16303 -9.4741,20.32607 -4.3063,9.99079 -7.7514,19.1203 -3.2729,9.1295 -5.6844,15.15843 l -6.718,-1.03353 q 0,-0.86128 -0.1722,-2.23932 0,-1.55029 0,-4.13411 0,-2.58383 -0.1723,-6.37344 0,-3.96186 0,-9.47401 0,-16.19196 0.8613,-42.71922 0.8613,-26.52725 4.1341,-63.56205 1.378,-18.08677 4.1341,-30.83363 2.7561,-12.91911 6.2012,-21.53186 3.4451,-8.785 7.2347,-13.95264 3.9619,-5.16765 7.5792,-7.75147 3.6174,-2.75608 6.7179,-3.4451 3.1006,-0.86128 5.1677,-0.86128 7.9237,0 12.5746,6.20118 4.6509,6.20118 4.6509,16.53647 z m -16.881,-15.6752 q -4.4786,0 -8.096,4.47863 -3.4451,4.30637 -6.3734,12.40235 -2.7561,7.92373 -4.8231,19.1203 -2.0671,11.19656 -3.7896,24.97695 -1.7226,13.60814 -3.1006,29.45559 -1.2058,15.6752 -2.4116,32.72843 8.096,-15.50294 14.9862,-30.66137 7.0624,-15.33069 12.2301,-29.28333 5.1676,-13.95265 8.0959,-26.01049 3.1006,-12.2301 3.1006,-21.53186 0,-2.75608 -0.5167,-5.51216 -0.3445,-2.92833 -1.5503,-5.16764 -1.0336,-2.23932 -2.9284,-3.61736 -1.8948,-1.37804 -4.8231,-1.37804 z"
           style="font-family:'Clicker Script';-inkscape-font-specification:'Clicker Script'"
           id="path17853" />
        <path
           d="m 1696.8598,388.1594 q -7.0624,19.1203 -12.9191,32.03941 -5.6844,12.91912 -11.1965,20.84284 -5.3399,7.92373 -10.6798,11.36883 -5.3399,3.44509 -11.7134,3.44509 -7.7514,0 -13.2636,-5.3399 -5.5122,-5.51215 -6.8902,-16.88098 -5.5122,11.88559 -14.2972,19.46481 -8.785,7.40696 -22.0486,7.40696 -7.0624,0 -13.6081,-2.58383 -6.3735,-2.58382 -11.3688,-7.92372 -4.9954,-5.51216 -8.096,-13.78039 -2.9284,-8.26824 -2.9284,-19.46481 0,-11.36882 2.7561,-21.3596 2.9284,-9.99079 7.5792,-18.25902 4.6509,-8.44049 10.6798,-14.98618 6.2012,-6.54568 12.7469,-11.02431 6.5457,-4.47863 13.0914,-6.89019 6.5457,-2.41157 12.0578,-2.41157 4.8232,0 9.3018,1.20578 4.4786,1.20579 7.9237,3.96186 3.6174,2.58383 5.6844,7.06245 2.2393,4.47863 2.2393,11.19657 0,7.92373 -3.1006,13.78039 -2.9283,5.85667 -7.2347,9.81853 -4.1341,3.96186 -8.6127,6.37343 -4.3064,2.41157 -6.8902,3.4451 l -2.0671,-6.71794 q 0.5168,0 3.7896,-1.37804 3.4451,-1.37804 7.0625,-4.47863 3.7896,-3.27284 6.8902,-8.26823 3.1006,-4.99539 3.1006,-12.2301 0,-8.26823 -4.6509,-12.57461 -4.6509,-4.47862 -11.8856,-4.47862 -5.5121,0 -12.9191,3.96186 -7.407,3.96186 -14.2972,12.40235 -6.7179,8.44049 -11.541,21.35961 -4.6509,12.91912 -4.6509,30.83362 0,17.74226 6.2012,27.04402 6.3734,9.30177 17.0532,9.30177 5.3399,0 10.163,-2.92834 4.9954,-3.10059 9.1295,-8.09598 4.1342,-4.99539 7.407,-11.54108 3.2728,-6.71794 5.6844,-13.78039 0,-5.51215 1.2058,-12.91911 1.378,-7.57922 4.1341,-15.33069 l 10.5076,3.4451 q -0.8613,2.23931 -1.7226,5.85667 -0.8613,3.61735 -1.7225,7.92372 -0.6891,4.30637 -1.2058,8.95726 -0.5168,4.47862 -0.5168,8.78499 0,13.43589 2.5838,18.60353 2.7561,4.99539 9.3018,4.99539 3.7896,0 7.407,-2.75607 3.7896,-2.75608 8.0959,-9.64628 4.3064,-6.89019 9.4741,-18.60353 5.1676,-11.88558 12.0578,-29.97235 z"
           style="font-family:'Clicker Script';-inkscape-font-specification:'Clicker Script'"
           id="path17855" />
        <path
           d="m 1709.9512,452.75499 q -10.852,0 -18.0867,-8.785 -7.0625,-8.785 -7.0625,-26.52726 0,-11.71333 4.6509,-29.80009 4.8231,-18.25902 16.5365,-41.16892 l 6.3734,1.72255 q -1.0335,4.47862 -3.4451,12.23009 -2.2393,7.75147 -4.6509,17.39775 -2.2393,9.47402 -3.9619,19.98157 -1.7225,10.33529 -1.7225,19.98156 0,8.09598 1.2058,13.26363 1.2058,4.99539 3.1006,7.92372 2.067,2.75608 4.6509,3.78961 2.756,1.03353 5.8566,1.03353 4.9954,0 9.474,-3.10059 4.4787,-3.10058 8.4405,-8.09598 4.1341,-5.16764 7.5792,-11.36882 3.6174,-6.37343 6.3735,-12.74686 2.9283,-6.37343 5.1676,-12.05784 2.2393,-5.85667 3.6174,-9.99079 l 6.7179,1.72255 q -1.8948,5.16765 -4.4786,12.05784 -2.4116,6.71795 -5.6844,13.95265 -3.1006,7.23471 -7.0625,14.1249 -3.9618,6.8902 -8.9572,12.40235 -4.9954,5.33991 -11.1966,8.785 -6.0289,3.27285 -13.4359,3.27285 z m 27.9053,-160.54156 q 0,6.02892 -4.6509,9.30176 -4.6508,3.27285 -11.7133,3.27285 -3.6174,0 -6.8902,-1.03353 -3.1006,-1.20579 -5.5122,-2.92834 -2.2393,-1.8948 -3.6173,-4.30637 -1.2058,-2.58382 -1.2058,-5.3399 0,-5.85667 4.4786,-9.47402 4.6509,-3.61735 10.6798,-3.61735 4.3064,0 7.7515,1.37804 3.4451,1.20578 5.8567,3.27284 2.4115,2.06706 3.6173,4.65088 1.2058,2.41157 1.2058,4.82314 z m -9.3017,0 q 0,-1.72255 -1.5503,-3.10059 -1.3781,-1.55029 -4.3064,-1.55029 -5.3399,0 -5.3399,3.96186 0,1.8948 1.5503,3.27284 1.7225,1.20579 4.4786,1.20579 2.5838,0 3.7896,-1.03353 1.3781,-1.20579 1.3781,-2.75608 z"
           style="font-family:'Clicker Script';-inkscape-font-specification:'Clicker Script'"
           id="path17857" />
        <path
           d="m 1813.6487,253.62833 q 0,10.85206 -2.5838,23.08216 -2.4116,12.2301 -6.5457,24.8047 -3.9619,12.57461 -9.3018,25.32147 -5.1676,12.74686 -10.5075,24.4602 -5.3399,11.71333 -10.5076,22.22088 -5.1676,10.50754 -9.1295,18.77578 0.6891,14.1249 2.4116,25.49372 1.7226,11.36883 4.3064,19.46481 2.5838,7.92372 6.2012,12.23009 3.6173,4.30638 8.2682,4.30638 5.1676,0 10.163,-4.82314 5.1677,-4.82314 10.3353,-13.60814 5.1677,-8.785 10.5076,-21.18735 5.3399,-12.40235 10.852,-27.73304 l 6.718,1.72255 q -4.1341,11.88559 -9.3018,25.14922 -5.1676,13.09137 -11.5411,24.11568 -6.3734,11.02431 -13.9526,18.25902 -7.407,7.2347 -16.0197,7.2347 -8.6128,0 -14.4694,-5.3399 -5.8567,-5.3399 -9.6463,-13.95264 -3.7896,-8.785 -5.8567,-19.80932 -2.067,-11.19656 -3.1006,-22.73764 -1.0335,-11.54108 -1.2057,-22.39314 -0.1723,-11.02431 -0.1723,-19.4648 0,-15.67519 1.2058,-31.17813 1.378,-15.50294 3.9618,-29.62785 2.7561,-14.1249 6.5457,-26.18274 3.7896,-12.2301 8.785,-21.0151 5.1677,-8.95725 11.1966,-13.95264 6.2012,-4.99539 13.4359,-4.99539 5.1676,0 8.785,1.72255 3.6173,1.72254 5.8566,4.65088 2.2394,2.92833 3.2729,6.89019 1.0335,3.78961 1.0335,8.09598 z m -49.6094,99.21882 q 0,6.54569 0,12.91912 0,6.20117 0.3445,12.05784 4.3064,-8.61275 9.1295,-18.77578 4.8232,-10.3353 9.474,-21.18736 4.8232,-11.02431 9.1296,-22.22088 4.3063,-11.19656 7.5792,-21.87637 3.2728,-10.85206 5.1676,-20.49833 2.0671,-9.81853 2.0671,-17.74225 0,-2.58383 -0.5168,-5.51216 -0.3445,-2.92833 -1.5503,-5.3399 -1.0335,-2.58382 -3.1006,-4.13412 -2.067,-1.72255 -5.3399,-1.72255 -6.5457,0 -12.5746,8.61275 -5.8566,8.44049 -10.3353,23.59892 -4.3063,15.15843 -6.8902,36.17352 -2.5838,20.84285 -2.5838,45.64755 z"
           style="font-family:'Clicker Script';-inkscape-font-specification:'Clicker Script'"
           id="path17859" />
      </g>
    </clipPath>
  </defs>
  <g
     id="layer1">
    <path
       style="font-variation-settings:normal;opacity:1;fill:#f3ebb6;fill-opacity:0;stroke:#63f453;stroke-width:15;stroke-linecap:butt;stroke-linejoin:miter;stroke-miterlimit:4;stroke-dasharray:none;stroke-dashoffset:0;stroke-opacity:0.990991;stop-color:#000000;stop-opacity:1"
       d="m 147.84045,528.18877 c 18.46493,-16.24023 16.66055,-8.78777 24.83364,-25.66298 7.71142,-15.92196 -10.49421,-27.99948 -10.49421,-27.99948 0,0 -4.89431,-0.88987 -15.35036,-0.22246 -10.45604,0.66741 -38.72541,37.03782 -38.72541,37.03782 0,0 -6.25443,29.83724 -6.28311,40.74726 -0.0316,12.02914 13.6404,30.77979 22.98409,32.11461 9.3437,1.33479 26.47381,0.22246 30.47826,-7.11901 4.00443,-7.34148 14.01554,-22.02445 18.01998,-36.92986 4.00444,-14.90543 7.11901,-22.69183 2.44716,-17.1301 -4.67185,5.56173 -8.23135,40.48935 -1.33481,47.83082 6.89653,7.34147 14.90542,14.68294 21.13455,8.89876 6.22913,-5.78419 21.35702,-25.8064 26.02887,-38.26465 4.67185,-12.45828 23.13677,-32.48049 24.47159,-36.7074 1.33481,-4.2269 18.24245,-41.37921 18.24245,-41.37921 l 11.79086,-31.14567 4.00444,-31.81308 c 0,0 2.2247,-12.68071 -6.89655,-13.79307 -9.12122,-1.11233 -20.91207,-0.44492 -29.58836,20.91209 -8.67629,21.35703 -9.56617,76.52932 -9.56617,76.52932 l -4.67185,75.63945 -1.64943,30.31903 24.56374,-56.57035 c 0,0 13.12568,-25.8064 17.57504,-27.36368 4.44939,-1.55729 17.13011,-15.1279 21.5795,-11.79087 4.44936,3.33703 16.66281,15.48994 16.66281,15.48994 l -9.02252,40.02862 -5.66971,24.59919 c 0,0 10.26521,15.54392 17.60668,14.87651 7.34147,-0.66742 22.91432,-13.57062 22.91432,-13.57062 0,0 10.01109,-12.9032 11.56837,-23.5817 1.55729,-10.6785 26.69628,-49.61059 26.69628,-49.61059 l 15.57284,-40.48935 11.56838,-39.37701 c 0,0 2.89211,-8.00888 -2.2247,-18.24246 -5.11677,-10.23356 -26.69627,30.9232 -26.69627,30.9232 l -8.23134,51.83526 2.22469,43.8264 6.67406,37.59724 16.68518,14.01556 21.80196,-4.89431 c 0,0 18.68739,-23.35924 20.46713,-29.36592 1.77975,-6.00665 18.68739,-54.05996 18.68739,-54.05996 0,0 6.49634,-41.45829 0.0447,-30.33484 -6.4516,11.12346 5.96194,37.45385 5.96194,37.45385 0,0 20.06036,30.03331 25.84457,38.26465 5.78419,8.23138 7.56394,21.67166 3.55949,31.23783 -4.00444,9.56617 -15.95431,25.88928 -24.50974,22.82213 -51.28147,-18.38458 11.12345,-2.66962 20.24467,-3.55949 9.12122,-0.88987 23.13678,-18.24247 31.81307,-30.47826 8.67627,-12.23578 9.34369,-26.25132 16.01775,-31.36812 6.67408,-5.11678 20.46716,-21.13455 24.02665,-28.92097 3.55952,-7.7864 28.47605,-76.52933 28.47605,-76.52933 l 1.77974,-22.69183 c 0,0 -2.00223,-14.9054 -10.01112,-16.01777 -8.00888,-1.11233 -20.91208,8.6763 -23.80416,17.79752 -2.89211,9.12125 -11.34592,57.17453 -11.34592,57.17453 0,0 -2.44716,61.17896 -2.8921,68.74293 -0.44493,7.56393 -8.45381,66.29574 -3.33704,53.615 5.11678,-12.68071 24.47158,-52.94759 28.69851,-57.84194 4.22691,-4.89431 14.238,-22.02441 19.13231,-22.69183 4.89432,-0.66741 11.56841,-12.01332 22.02445,-3.33703 10.45604,8.6763 7.56393,24.91653 4.44936,34.92762 -3.11456,10.01112 -7.78639,28.47605 -8.00888,38.48714 -0.22246,10.01112 4.22693,18.46493 10.45604,18.24247 6.22914,-0.22247 20.68962,0 23.13678,-5.33927 2.44716,-5.33924 10.90099,-22.02442 15.1279,-29.81084 4.2269,-7.7864 14.23802,-26.91874 19.13234,-36.92986 4.89431,-10.01109 19.3548,-34.2602 23.35924,-34.92761 4.00444,-0.66742 21.80196,-12.01333 27.14119,-9.12122 5.33927,2.89208 17.79752,5.78419 17.57506,11.79084 -0.22246,6.00667 0.88987,24.24911 -3.78198,25.80639 -4.67183,1.55729 -14.01554,13.12569 -16.01775,11.79087 -2.00223,-1.33482 48.49823,-53.17008 48.49823,-53.17008 l -95.74838,-4.42703 -3.43463,96.20803 c 0,0 6.63592,14.3367 13.53244,18.34114 6.89655,4.00445 10.45605,7.34148 18.46493,4.67186 8.00888,-2.66965 19.57729,-3.33706 20.46716,-11.56841 0.88987,-8.23134 13.79307,-16.01776 15.35036,-25.58393 1.55728,-9.56615 2.89208,-36.48491 3.78198,-23.35925 0.88987,13.12569 -2.00224,28.25359 -2.00224,28.25359 0,0 -3.78198,18.68739 0.66742,20.46713 4.44936,1.77975 12.68073,10.90097 16.24023,8.23135 3.55949,-2.66962 16.01777,-8.45381 17.1301,-14.90541 1.11236,-6.4516 25.13902,-58.28689 27.14122,-62.95874 2.00224,-4.67183 8.23135,-17.35257 14.90544,-16.68515 6.67406,0.66741 10.90096,5.33924 10.90096,5.33924 l 2.89211,10.01111 0.66741,13.79308 -0.22249,20.68962 -4.44936,28.03107 -2.9461,28.31026 8.73029,-34.09445 5.11677,-17.1301 3.55952,-17.79752 6.00665,-14.68294 7.34148,-14.23803 7.34147,-8.67629 10.67853,-3.78198 6.00665,3.33705 4.2269,6.67406 5.11681,16.24024 -1.33483,15.57281 -3.55949,22.69186 -3.33706,17.79752 c -0.59325,3.70782 5.20744,20.12026 -2.09436,11.75269 l 18.77954,-65.59019 14.01557,-15.35036 7.34147,-1.77974 h 7.78639 l 5.78422,7.11898 3.33703,9.78866 v 16.01774 l -0.44495,17.57506 -2.2247,13.12568 -0.44492,17.35257 2.66962,9.12122 8.6763,4.00444 11.34591,-4.67183 8.00889,-7.11901 8.89875,-15.35036 9.12122,-13.34815 7.34148,-20.02221 3.78198,-7.34147 63.62615,24.4716 2.8921,-3.33705 6.6741,-8.45381 5.7842,-12.01333 7.7864,-16.46269 2.6696,-17.57505 4.4494,-15.57285 -2.4472,-8.67627 -8.6762,4.89432 1.1123,7.78639 5.3393,18.90988 7.3414,11.34591 10.2336,12.01333 10.2336,11.56838 7.4112,29.28573 -1.6494,14.61046 -5.0944,5.7144 -8.6763,7.56393 -11.3459,5.78419 -21.1755,-6.88996 33.4113,8.8922 15.5728,-4.00444 5.3393,-5.78419 16.4627,-19.3548 6.4516,-13.34815 9.5661,-23.58171 10.2336,-19.3548 15.0068,-24.77311 -20.3461,41.68076 -1.1123,14.46048 2.8763,24.7164 c 7.5956,13.02997 14.2472,18.83624 18.6966,23.06315 l 23.874,2.39974 17.3749,-8.80007 9.0357,-15.57282 7.7864,-17.1301 4.2269,-28.0311 -2.8921,-14.68297 -6.6741,-17.35257 -8.2313,-7.34147 -11.5684,-4.2269 -18.2425,4.67182 -7.119,13.12569 -2.0022,14.90541 2.2247,15.57284 7.564,10.67851 9.3436,8.00888 11.1235,6.67406 16.9076,1.77975 12.9032,1.11236 17.7975,-9.56617 14.7146,-12.39502 13.7615,-18.75064 9.5661,-17.57506 10.6786,-26.91873 14.4604,-39.59947 1.7798,-16.01777 0.8899,-14.68297 -5.3393,-8.89876 -9.1212,-2.66962 -11.3459,8.00888 -5.3393,11.34592 -8.2313,31.14566 -7.1191,52.72514 -3.7819,28.25355 0.8899,29.36592 -1.5573,21.80196 v 22.60239 l 17.1301,-43.29201 c 0,0 13.7931,-30.92318 17.575,-33.5928 3.782,-2.66964 18.02,-15.12789 18.02,-15.12789 0,0 14.238,-7.78643 18.4649,-3.33703 4.2269,4.44936 4.8944,15.35035 5.1168,20.46713 0.2225,5.11678 -2.6696,20.91208 -2.6696,20.91208 l -7.2046,23.9503 3.2002,20.76598 c 0,0 3.1145,7.34147 6.8965,7.34147 3.782,0 13.1257,-2.00223 13.1257,-2.00223 0,0 11.7908,-6.67406 14.4605,-11.12345 2.6696,-4.44937 15.1278,-26.91874 15.1278,-26.91874 l 8.8988,-23.80419 10.456,-19.79972 10.6786,-9.56617 17.7975,-18.01998 c 0,0 9.3437,-3.11457 12.6807,-2.66965 3.337,0.44495 7.119,-2.66961 12.2358,0.44495 5.1168,3.11457 5.7842,8.00889 7.7864,11.12346 2.0022,3.11454 1.5573,12.23579 1.5573,12.23579 l -3.337,10.45604 -14.4605,13.12566 -2.8921,0.88987 5.5617,5.78419 45.3837,-47.60836 -85.873,-39.82193 -14.0156,117.10427 9.5662,18.37933 10.0111,5.11678 15.5728,0.88987 14.238,-7.34147 10.6785,-12.45825 9.7887,-20.24468 c 0,0 5.3392,-29.36592 2.0022,-16.01777 -3.3371,13.34813 -0.6674,43.15897 -0.6674,43.15897 l 12.4582,9.34371 10.901,-2.44716 32.4805,-50.72293 c 0,0 21.5571,-65.68504 12.2134,-44.55049 -9.3437,21.13454 -14.4381,59.67839 -14.4381,59.67839 l 0.3594,20.17488 10.9865,12.97299 11.7909,0.66741 14.0155,-6.22914 15.3504,-19.79975 8.6763,-18.68738 8.2313,-13.57062 9.7887,-18.68738 13.2846,-27.25426 18.2479,-44.04659 7.1771,-40.60105 c 0,0 1.5572,-12.01332 -2.6697,-16.68515 -4.2269,-4.67186 -18.9098,-8.00889 -23.1367,-2.89211 -4.227,5.11678 -11.7909,22.02442 -11.7909,22.02442 l -11.1235,31.81308 -5.1391,70.35417 5.9974,68.54281 11.5145,23.91213 16.3258,2.0404 12.0133,-8.00888 14.9054,-28.0311 9.1212,-19.3548 4.0045,-11.34591 1.3348,-87.87527 -0.2184,-37.55694 -15.731,-62.60912 -105.0826,51.59748 -0.6292,35.86652 c 0,0 6.2923,13.84321 15.1016,11.95551 8.8094,-1.88772 9.4386,-0.62926 9.4386,-11.32628 0,-10.69703 -22.6525,-6.29238 -22.6525,-6.29238 l -364.9576,-67.32838 -843.80729,18.87712 -15.73093,92.49788 24.54025,10.69704 30.83263,3.14618 21.39407,-2.51695 28.31567,-5.03389 22.02331,-8.80933"
       id="path3775"
       class="UnoptimicedTransforms"
       clip-path="url(#clipPath17833)" />
    <text
       xml:space="preserve"
       transform="scale(0.26458333)"
       id="text268"
       style="font-style:normal;font-variant:normal;font-weight:normal;font-stretch:normal;font-size:1333.33px;font-family:'Clicker Script';-inkscape-font-specification:'Clicker Script';white-space:pre;shape-inside:url(#rect270);display:inline;fill:#000000" />
  </g>
</svg>
